#!OML:ASF H:\MichaelJackson\Top Level 1\Subject 1\Session 1\male.ASF
:FULLY-SPECIFIED
:DEGREES
270
root 4.1732 14.429 -3.62814 7.76869 -15.6424 -4.07732
lowerback 13.7501 3.12944 3.40591
upperback 2.52986 4.59295 -0.159258
thorax -4.73415 2.20188 -2.8785
lowerneck -5.57091 -0.0235386 3.63895
upperneck -1.3807 -0.261357 1.16584
head 0.489918 -0.133718 -0.247664
rclavicle 3.98315e-014 -2.83268e-014
rhumerus -48.714 -17.2033 -60.8164
rradius 57.4249
rwrist -11.7316
rhand -39.0198 -45.161
rfingers 7.12502
rthumb -12.0228 -74.7956
lclavicle 3.98315e-014 -2.83268e-014
lhumerus -51.0395 -9.83966 99.9624
lradius 79.9202
lwrist 21.9725
lhand -22.3358 -5.09699
lfingers 7.12502
lthumb 4.08454 24.8436
rfemur -47.5242 -2.62844 19.2471
rtibia 76.2473
rfoot -28.8829 -13.1258
rtoes -24.711
lfemur -44.2222 19.7635 -20.3666
ltibia 100.999
lfoot -3.53437 -15.2639
ltoes 24.5141
271
root 4.20088 14.4789 -3.49976 7.70957 -16.0734 -4.2911
lowerback 14.0355 3.09346 3.90125
upperback 2.5602 4.62847 -0.116689
thorax -4.81935 2.20945 -3.13454
lowerneck -5.592 0.187469 3.5774
upperneck -1.59849 0.0276939 0.999833
head 0.429797 0.00589602 -0.282044
rclavicle 7.00219e-014 -1.67476e-014
rhumerus -47.2539 -16.5452 -62.501
rradius 57.2751
rwrist -10.2843
rhand -39.0807 -43.4439
rfingers 7.12502
rthumb -12.0815 -73.0751
lclavicle 7.00219e-014 -1.67476e-014
lhumerus -51.4754 -12.1064 101.234
lradius 82.0879
lwrist 20.3386
lhand -21.495 -6.45809
lfingers 7.12502
lthumb 4.8964 23.4653
rfemur -46.663 -2.93507 19.2863
rtibia 75.9381
rfoot -29.3333 -12.7529
rtoes -25.0827
lfemur -45.8166 20.7779 -20.1328
ltibia 102.504
lfoot -2.22253 -15.233
ltoes 26.1046
272
root 4.22409 14.4804 -3.37895 7.65351 -16.558 -4.33967
lowerback 14.3117 3.0391 4.1584
upperback 2.58368 4.60317 -0.140541
thorax -4.92464 2.18932 -3.31711
lowerneck -5.61831 0.430467 3.56129
upperneck -1.83989 0.356072 0.85958
head 0.364231 0.165133 -0.31544
rclavicle -1.21756e-014 -2.2413e-014
rhumerus -45.482 -15.7902 -64.097
rradius 56.8352
rwrist -7.66855
rhand -38.8417 -41.5161
rfingers 7.12502
rthumb -11.851 -71.1608
lclavicle -1.21756e-014 -2.2413e-014
lhumerus -51.8244 -14.1511 101.958
lradius 83.8731
lwrist 17.0964
lhand -21.298 -8.26206
lfingers 7.12502
lthumb 5.08663 21.6569
rfemur -46.1671 -3.21585 19.1518
rtibia 75.9007
rfoot -29.717 -12.3471
rtoes -25.3566
lfemur -47.7207 21.8227 -20.1262
ltibia 104.018
lfoot -2.21537 -14.8959
ltoes 27.1684
273
root 4.24723 14.4837 -3.26082 7.5982 -17.1084 -4.26378
lowerback 14.5871 2.99369 4.21683
upperback 2.60402 4.55828 -0.206498
thorax -5.04695 2.16156 -3.42976
lowerneck -5.66719 0.674575 3.56228
upperneck -2.09358 0.683488 0.725993
head 0.299174 0.323948 -0.349877
rclavicle -1.16786e-015 1.16289e-014
rhumerus -43.4495 -14.9859 -65.5686
rradius 56.1899
rwrist -4.39815
rhand -38.4426 -39.6019
rfingers 7.12502
rthumb -11.4662 -69.2683
lclavicle -1.16786e-015 1.16289e-014
lhumerus -52.012 -15.9545 102.166
lradius 85.2366
lwrist 12.786
lhand -21.8452 -10.2452
lfingers 7.12502
lthumb 4.5582 19.6857
rfemur -45.7591 -3.49522 18.8984
rtibia 75.8982
rfoot -30.0535 -11.9344
rtoes -25.53
lfemur -49.6784 22.9051 -20.3229
ltibia 105.201
lfoot -3.16537 -14.2199
ltoes 27.8986
274
root 4.2709 14.4875 -3.14488 7.55792 -17.7088 -4.11455
lowerback 14.8605 2.97467 4.14285
upperback 2.62018 4.52655 -0.290952
thorax -5.18049 2.14172 -3.49014
lowerneck -5.74337 0.89363 3.5521
upperneck -2.36133 0.9766 0.587234
head 0.2343 0.465692 -0.384886
rclavicle 2.58669e-014 -2.08724e-015
rhumerus -41.2095 -14.1765 -66.8971
rradius 55.4404
rwrist -1.10896
rhand -37.9951 -37.7871
rfingers 7.12502
rthumb -11.0345 -67.477
lclavicle 2.58669e-014 -2.08724e-015
lhumerus -51.9777 -17.5268 101.907
lradius 86.1984
lwrist 8.18604
lhand -22.9489 -12.0371
lfingers 7.12502
lthumb 3.49242 17.914
rfemur -45.4626 -3.82504 18.6014
rtibia 76.0145
rfoot -30.382 -11.5589
rtoes -25.564
lfemur -51.7065 24.0221 -20.6848
ltibia 106.058
lfoot -4.76879 -13.2406
ltoes 28.3367
275
root 4.29546 14.4919 -3.02989 7.52819 -18.3279 -3.94469
lowerback 15.135 2.98623 4.00963
upperback 2.6392 4.52502 -0.371773
thorax -5.31382 2.13768 -3.51885
lowerneck -5.84294 1.07179 3.51261
upperneck -2.64489 1.2155 0.432511
head 0.167967 0.580483 -0.421096
rclavicle 3.70485e-014 -2.39536e-014
rhumerus -38.8138 -13.3666 -68.0956
rradius 54.6932
rwrist 1.62489
rhand -37.5781 -36.1876
rfingers 7.12502
rthumb -10.6324 -65.8986
lclavicle 3.70485e-014 -2.39536e-014
lhumerus -51.6841 -18.8802 101.245
lradius 86.8194
lwrist 4.07398
lhand -24.2083 -13.2692
lfingers 7.12502
lthumb 2.27615 16.6984
rfemur -45.2278 -4.27566 18.3409
rtibia 76.1521
rfoot -30.6215 -11.2552
rtoes -25.4619
lfemur -53.801 25.1502 -21.1427
ltibia 106.513
lfoot -6.62664 -12.0927
ltoes 28.5063
276
root 4.32161 14.4966 -2.91403 7.5001 -18.9722 -3.80106
lowerback 15.4153 3.03822 3.89337
upperback 2.66516 4.57883 -0.443379
thorax -5.43755 2.16086 -3.55772
lowerneck -5.9358 1.20205 3.43801
upperneck -2.95927 1.39261 0.264859
head 0.0903001 0.664473 -0.456851
rclavicle 2.42269e-014 -6.16232e-015
rhumerus -36.322 -12.5666 -69.1833
rradius 54.0087
rwrist 3.4805
rhand -37.198 -34.8279
rfingers 7.12502
rthumb -10.2657 -64.5574
lclavicle 2.42269e-014 -6.16232e-015
lhumerus -51.1369 -20.0294 100.262
lradius 87.1622
lwrist 1.03044
lhand -25.1699 -13.8337
lfingers 7.12502
lthumb 1.34751 16.1418
rfemur -45.0153 -4.88606 18.1781
rtibia 76.2911
rfoot -30.7662 -11.0729
rtoes -25.2359
lfemur -55.9038 26.3033 -21.6359
ltibia 106.539
lfoot -8.44124 -10.9125
ltoes 28.2783
277
root 4.34951 14.5017 -2.79558 7.46279 -19.6368 -3.69835
lowerback 15.6879 3.1257 3.8272
upperback 2.70578 4.68635 -0.506052
thorax -5.53348 2.21053 -3.62454
lowerneck -6.01116 1.29233 3.33304
upperneck -3.2943 1.51825 0.0826178
head 0.00278126 0.72313 -0.493337
rclavicle -7.81224e-014 3.29486e-014
rhumerus -33.7658 -11.7646 -70.1912
rradius 53.4089
rwrist 4.41291
rhand -36.837 -33.7427
rfingers 7.12502
rthumb -9.91735 -63.4891
lclavicle -7.81224e-014 3.29486e-014
lhumerus -50.3582 -20.9698 99.0327
lradius 87.2797
lwrist -0.600802
lhand -25.5593 -13.7503
lfingers 7.12502
lthumb 0.971399 16.2272
rfemur -44.7857 -5.69159 18.1285
rtibia 76.4096
rfoot -30.8364 -11.0183
rtoes -24.876
lfemur -57.9511 27.4715 -22.1259
ltibia 106.119
lfoot -10.0034 -9.86909
ltoes 27.8687
278
root 4.37902 14.5068 -2.67431 7.41351 -20.2998 -3.6333
lowerback 15.9455 3.23578 3.82152
upperback 2.7584 4.83223 -0.567265
thorax -5.59984 2.27894 -3.73007
lowerneck -6.05753 1.35713 3.21002
upperneck -3.63566 1.61116 -0.103466
head -0.0918404 0.766125 -0.529031
rclavicle -5.35228e-014 1.07344e-014
rhumerus -31.1905 -10.9479 -71.1442
rradius 52.909
rwrist 4.5661
rhand -36.4783 -32.9952
rfingers 7.12502
rthumb -9.57131 -62.7578
lclavicle -5.35228e-014 1.07344e-014
lhumerus -49.392 -21.694 97.6296
lradius 87.2163
lwrist -0.708615
lhand -25.3218 -13.0686
lfingers 7.12502
lthumb 1.20081 16.9078
rfemur -44.5193 -6.71075 18.1721
rtibia 76.4908
rfoot -30.8704 -11.0568
rtoes -24.3892
lfemur -59.9133 28.6283 -22.595
ltibia 105.262
lfoot -11.2384 -9.07293
ltoes 27.3733
279
root 4.40991 14.5122 -2.54954 7.34825 -20.9702 -3.5961
lowerback 16.1794 3.36309 3.86796
upperback 2.8149 5.00779 -0.637474
thorax -5.64054 2.36178 -3.87885
lowerneck -6.06807 1.41116 3.09477
upperneck -3.95321 1.68923 -0.293745
head -0.184963 0.802542 -0.568025
rclavicle -3.00413e-014 1.58531e-014
rhumerus -28.6285 -10.1141 -72.0606
rradius 52.4864
rwrist 4.19923
rhand -36.1032 -32.5817
rfingers 7.12502
rthumb -9.20937 -62.3606
lclavicle -3.00413e-014 1.58531e-014
lhumerus -48.3076 -22.1856 96.113
lradius 87.0041
lwrist 0.661185
lhand -24.5208 -11.8868
lfingers 7.12502
lthumb 1.97438 18.0838
rfemur -44.1993 -7.91015 18.2595
rtibia 76.5229
rfoot -30.9206 -11.11
rtoes -23.8441
lfemur -61.7429 29.7731 -23.0226
ltibia 103.984
lfoot -12.1543 -8.55843
ltoes 26.8756
280
root 4.44164 14.5175 -2.42032 7.25345 -21.6635 -3.5702
lowerback 16.3824 3.50409 3.93703
upperback 2.87771 5.20301 -0.721114
thorax -5.65151 2.45492 -4.05636
lowerneck -6.07022 1.4728 2.99717
upperneck -4.20457 1.77537 -0.479579
head -0.258887 0.844092 -0.608588
rclavicle 1.07841e-014 6.95746e-016
rhumerus -26.0913 -9.25207 -72.9517
rradius 52.1118
rwrist 3.61607
rhand -35.6906 -32.3963
rfingers 7.12502
rthumb -8.81121 -62.1923
lclavicle 1.07841e-014 6.95746e-016
lhumerus -47.1529 -22.4193 94.5296
lradius 86.6699
lwrist 3.33493
lhand -23.3586 -10.198
lfingers 7.12502
lthumb 3.09678 19.7593
rfemur -43.8039 -9.23069 18.3212
rtibia 76.5043
rfoot -31.0433 -11.0647
rtoes -23.3042
lfemur -63.383 30.927 -23.4031
ltibia 102.31
lfoot -12.8319 -8.30015
ltoes 26.3189
281
root 4.47361 14.522 -2.28739 7.14022 -22.3627 -3.54528
lowerback 16.5521 3.65041 4.00524
upperback 2.93303 5.40327 -0.819126
thorax -5.64914 2.551 -4.24792
lowerneck -6.086 1.54873 2.93038
upperneck -4.35212 1.87739 -0.654142
head -0.298375 0.894559 -0.650245
rclavicle 4.07757e-014 -1.37658e-014
rhumerus -23.5989 -8.35554 -73.8235
rradius 51.7611
rwrist 3.07455
rhand -35.2574 -32.4196
rfingers 7.12502
rthumb -8.39319 -62.2328
lclavicle 4.07757e-014 -1.37658e-014
lhumerus -45.9853 -22.3755 92.911
lradius 86.2306
lwrist 7.02835
lhand -22.0419 -8.04137
lfingers 7.12502
lthumb 4.36833 21.8936
rfemur -43.3512 -10.6279 18.3066
rtibia 76.4453
rfoot -31.2615 -10.828
rtoes -22.8586
lfemur -64.839 32.0779 -23.7425
ltibia 100.28
lfoot -13.3471 -8.21023
ltoes 25.5171
282
root 4.50549 14.5256 -2.15115 7.01979 -23.0496 -3.51769
lowerback 16.6822 3.79467 4.05148
upperback 2.97426 5.59585 -0.922768
thorax -5.64127 2.64392 -4.42962
lowerneck -6.13679 1.64267 2.88983
upperneck -4.38373 2.00053 -0.814204
head -0.296143 0.956347 -0.690736
rclavicle 8.70428e-014 -2.66371e-014
rhumerus -21.1526 -7.40404 -74.6684
rradius 51.4017
rwrist 2.75285
rhand -34.7965 -32.5522
rfingers 7.12502
rthumb -7.94834 -62.3827
lclavicle 8.70428e-014 -2.66371e-014
lhumerus -44.8393 -22.0287 91.2809
lradius 85.6877
lwrist 11.3837
lhand -20.8412 -5.49641
lfingers 7.12502
lthumb 5.52767 24.4115
rfemur -42.8779 -12.069 18.186
rtibia 76.4527
rfoot -31.646 -10.3518
rtoes -22.5452
lfemur -66.1176 33.2156 -24.0499
ltibia 97.9925
lfoot -13.8299 -8.16753
ltoes 24.3397
283
root 4.5373 14.5291 -2.01049 6.88433 -23.7351 -3.49447
lowerback 16.779 3.94245 4.07351
upperback 3.00374 5.78821 -1.02516
thorax -5.6294 2.73732 -4.5945
lowerneck -6.23493 1.74748 2.86868
upperneck -4.30181 2.13593 -0.953232
head -0.251109 1.02477 -0.726768
rclavicle 1.51076e-014 -1.21259e-014
rhumerus -18.7697 -6.37741 -75.4738
rradius 51.0285
rwrist 2.7246
rhand -34.3079 -32.6944
rfingers 7.12502
rthumb -7.47677 -62.5423
lclavicle 1.51076e-014 -1.21259e-014
lhumerus -43.751 -21.383 89.6608
lradius 85.0301
lwrist 15.9491
lhand -19.8401 -2.67696
lfingers 7.12502
lthumb 6.49419 27.2035
rfemur -42.3638 -13.5237 17.9556
rtibia 76.4467
rfoot -32.0925 -9.60738
rtoes -22.3931
lfemur -67.2034 34.3651 -24.3186
ltibia 95.4398
lfoot -14.2703 -8.04423
ltoes 22.7038
